<svg width="70" height="71" viewBox="0 0 70 71" fill="none" xmlns="http://www.w3.org/2000/svg">
<path fill-rule="evenodd" clip-rule="evenodd" d="M32.3259 0.280085C22.1756 2.13203 16.524 13.1744 21.0117 22.3873C22.0809 24.5825 22.8283 25.1155 23.6643 24.2795C24.1314 23.8124 24.0868 23.358 23.468 22.2849C21.4086 18.7128 21.0944 14.1447 22.6582 10.5095C23.1365 9.39759 23.4304 9.87886 24.2081 13.0488C24.4663 14.1016 24.8856 15.3973 25.1398 15.9279C27.3735 20.5904 33.035 19.7575 31.3917 15.0082C31.0399 13.9914 31.111 13.8098 32.3809 12.4766C34.0232 10.7523 34.2804 9.39531 33.2484 7.89693C32.5763 6.92109 32.6039 6.65763 33.5197 5.31494C34.357 4.08754 34.9303 2.96773 34.9324 2.55609C34.935 2.05698 37.9292 2.47125 39.8371 3.23452L40.377 3.45058L39.9825 4.08982C37.9469 7.38854 39.8808 12.4238 42.4509 10.5158L43.0659 10.0592L44.7744 10.0545C45.714 10.0519 46.5794 10.0034 46.6977 9.94673C46.853 9.87203 46.9615 9.94883 47.0899 10.2247C49.3124 15.0008 48.1156 21.2038 44.2306 25.0434C42.7221 26.5345 42.6498 26.5605 42.2756 25.7497C41.6138 24.3158 41.8827 23.3157 43.7201 20.3781C46.0047 16.7256 44.8536 13.4578 41.3724 13.7134C40.2475 13.796 34.4616 15.681 33.5409 16.265C30.9514 17.9073 30.6941 23.4352 33.1492 24.6794C33.9716 25.0961 34.0033 25.1423 34.4385 26.5609C34.723 27.4883 34.9254 27.8819 35.3442 28.322L35.8836 28.889L34.2811 28.8145C31.7184 28.6952 29.5302 27.9636 27.3917 26.5114C26.0621 25.6085 25.0933 25.8237 25.0933 27.0219C25.0933 27.5626 25.2845 27.7802 26.462 28.5799C31.088 31.7214 37.6942 31.858 42.7242 28.9161C54.7262 21.8969 52.1662 4.15682 38.6283 0.531478C37.4859 0.225678 33.4968 0.06648 32.3259 0.280085ZM32.6104 2.58898C32.6104 2.65231 32.3116 3.12956 31.9467 3.64931C30.3893 5.86689 30.1558 7.35618 31.141 8.78774C31.8233 9.77896 31.8127 9.8269 30.6283 11.0935C29.0673 12.7626 28.7302 13.6496 29.125 15.0477C29.6353 16.8547 29.5242 17.1439 28.5197 16.6245C27.5362 16.1157 27.0054 15.0883 26.3098 12.3464C25.7381 10.0921 25.4603 9.34878 24.813 8.34006C24.2731 7.49876 24.2616 7.53462 25.469 6.31859C27.1317 4.64421 29.0785 3.47192 31.2745 2.82271C32.5675 2.44028 32.6104 2.43276 32.6104 2.58898ZM59.3301 3.74938C58.7987 3.99028 58.6363 4.19601 57.8867 5.57858L57.2632 6.72831L55.9849 7.437C53.4354 8.85037 53.4137 10.221 55.9187 11.6309L57.2543 12.3826L57.9712 13.6811C59.2895 16.0687 60.7626 16.1863 61.9849 14.0014C62.3148 13.4118 62.663 12.7999 62.7585 12.6417C62.854 12.4836 63.5258 12.0252 64.2513 11.6234C66.7313 10.2496 66.7015 8.79648 64.1652 7.42108L62.9254 6.74878L62.2095 5.47152C61.2328 3.72891 60.4321 3.24992 59.3301 3.74938ZM43.4415 5.40871C44.1743 6.01332 45.7311 7.6807 45.7311 7.86106C45.7311 7.88468 45.0084 7.89938 44.1251 7.89395C42.882 7.88608 42.4041 7.93664 42.0096 8.11788L41.4998 8.35213L41.4107 7.99752C41.1894 7.11581 41.5559 5.57368 42.1469 4.89963C42.4341 4.57196 42.4207 4.56671 43.4415 5.40871ZM60.6231 7.19331C61.1791 8.23999 61.3691 8.42753 62.5188 9.06502L63.3841 9.54489L62.9289 9.81448C62.6785 9.96283 62.1946 10.2426 61.8537 10.436C61.3647 10.7137 61.1217 10.9925 60.7031 11.7562C60.0528 12.9425 60.0747 12.9425 59.4528 11.7588C58.9778 10.8549 58.8762 10.7534 57.8587 10.1665L56.7719 9.53964L57.5727 9.09354C58.8043 8.40706 58.9358 8.28145 59.4934 7.25769C60.1228 6.10201 60.0458 6.10639 60.6231 7.19331ZM42.4667 16.157C43.0555 16.7459 42.741 17.7917 41.2797 20.1048C39.6415 22.6975 39.3289 24.6365 40.2353 26.5815C40.4767 27.0992 40.6742 27.54 40.6742 27.561C40.6742 27.582 40.4097 27.7001 40.0864 27.8236L39.4986 28.0481L38.1904 27.441C36.7481 26.7715 36.851 26.9045 36.2226 24.9005C35.9446 24.0146 35.3427 23.3201 34.4385 22.8428L33.772 22.4908L33.7321 21.3525C33.6352 18.587 33.9587 18.2537 38.0541 16.9009C41.389 15.7993 42.0052 15.6955 42.4667 16.157ZM8.73453 20.5714C8.28685 20.7734 7.9695 21.2024 7.2099 22.6332C6.80333 23.3991 6.69207 23.4983 5.52432 24.1365C3.0718 25.4773 3.0732 26.9451 5.52835 28.2633L6.75102 28.9198L7.42175 30.1409C8.8143 32.6765 10.1941 32.6839 11.6249 30.1631C12.3004 28.9732 12.3375 28.9357 13.4744 28.2953C16.0211 26.8609 16.0101 25.4288 13.4421 24.0744L12.2876 23.4655L11.6176 22.2409C10.6886 20.5432 9.86011 20.0633 8.73453 20.5714ZM10.9178 25.2105C11.0845 25.3128 11.5499 25.5812 11.9523 25.8069L12.6835 26.2175L11.6788 26.7567C10.7465 27.257 10.6348 27.3665 10.1274 28.2762C9.50602 29.3906 9.47156 29.413 9.23976 28.8537C8.8017 27.796 8.31431 27.2482 7.34513 26.7248L6.38032 26.2037L7.22879 25.7367C8.33251 25.1292 8.51742 24.9553 8.92836 24.1365C9.4999 22.9982 9.49605 22.9984 10.0842 24.0636C10.376 24.5921 10.7513 25.1083 10.9178 25.2105ZM34.4749 37.8748C33.884 38.0541 33.613 38.3638 32.9209 39.6514C32.2881 40.8284 32.286 40.8303 31.109 41.4631C28.5256 42.8519 28.5414 44.3152 31.1549 45.7032C31.7498 46.0193 32.3111 46.4008 32.4022 46.5511C32.4932 46.7016 32.8327 47.2986 33.1569 47.8782C34.3098 49.9397 35.8505 49.9186 36.9443 47.8261C37.595 46.5812 38.039 46.1372 39.2838 45.4866C41.486 44.3354 41.3997 42.8008 39.0609 41.5189L37.8062 40.8313L37.0944 39.5462C36.2375 37.9995 35.5372 37.5526 34.4749 37.8748ZM35.4912 41.2551C36.0965 42.3341 36.3787 42.6191 37.3083 43.0902C38.2241 43.5543 38.2166 43.5837 37.0193 44.2198C36.3895 44.5543 36.1456 44.7877 35.7965 45.3895C34.9933 46.7738 35.0472 46.7498 34.6028 45.9175C34.0712 44.9215 33.7802 44.6267 32.7717 44.062L31.9078 43.5785L32.9083 43.0104C33.8231 42.4912 33.9555 42.3584 34.4555 41.4585C35.1082 40.2834 34.9623 40.3121 35.4912 41.2551ZM13.5381 41.1594C13.1683 41.568 13.2075 42.3166 13.6195 42.7094C13.8037 42.885 16.3837 44.8598 19.353 47.0976C22.3222 49.3355 24.8438 51.2536 24.9566 51.3601C25.1855 51.5762 23.5587 50.805 15.135 46.7043C11.158 44.7684 9.2032 43.886 8.89197 43.886C8.1336 43.886 7.62591 44.8104 8.00029 45.5098C8.07062 45.6412 11.4526 47.3702 15.516 49.3518C19.5792 51.3335 22.8794 52.9792 22.8496 53.0088C22.8201 53.0385 19.1151 52.0436 14.6165 50.7978C4.08122 47.8803 5.02066 47.8179 3.9745 51.5057L3.46087 53.3165L2.83055 53.3195C-0.0154217 53.3331 -1.14468 57.2226 1.19396 58.9567C2.18256 59.6895 5.31719 60.2229 5.75997 59.7334C6.56121 58.8482 5.95398 58.0996 4.04553 57.6197C2.17486 57.1495 1.57114 56.4634 2.382 55.7295C2.79084 55.3595 2.80273 55.3623 17.6075 59.1358C33.0457 63.0708 32.4738 62.8906 32.4738 63.8192C32.4736 64.3283 33.0096 65.3388 33.4498 65.6591C34.9506 66.7514 37.394 65.6117 37.394 63.8192C37.394 62.8927 36.8267 63.0713 52.2605 59.1367C68.5774 54.9769 67.7356 55.1249 67.7356 56.4154C67.7356 57.1275 67.6286 57.1602 53.529 60.7622C38.0896 64.7065 39.4029 64.3001 38.9757 65.266C37.3923 68.8465 32.4773 68.8509 30.8951 65.2732C30.4491 64.265 32.6197 64.9201 13.6987 60.0814C10.0835 59.157 9.5704 59.0562 9.21737 59.2025C8.5015 59.499 8.33268 60.3002 8.86328 60.8824C9.12692 61.1718 27.9027 66.164 28.7272 66.164C28.8033 66.164 29.0029 66.4465 29.1708 66.7918C31.3128 71.2011 38.5389 71.2226 40.681 66.8261L40.9704 66.2322L52.4738 63.3056C67.3607 59.5179 68.2319 59.2841 68.6675 58.9612C71.0119 57.2228 69.8878 53.3331 67.0371 53.3195L66.4067 53.3165L65.8931 51.5057C64.9584 48.2106 64.8333 48.1408 61.5208 49.0685C59.105 49.7449 58.5152 50.3955 59.4606 51.341C59.8886 51.769 60.0465 51.7634 61.8735 51.2562C62.706 51.0253 63.4016 50.8561 63.4191 50.8804C63.4366 50.9047 63.635 51.5735 63.8601 52.3667L64.2693 53.8086L55.8544 55.9543C51.2262 57.1345 45.1853 58.6766 42.4299 59.3811L37.4205 60.6622L36.9322 59.4916C36.6638 58.8478 36.4579 58.3101 36.4749 58.2968C36.4917 58.2833 40.9337 57.0498 46.3457 55.5552C52.6008 53.8282 56.2732 52.7511 56.4254 52.5991C56.9952 52.0303 56.5052 50.7179 55.724 50.7205C55.6026 50.7209 53.5351 51.269 51.1297 51.9386C48.7242 52.6082 46.7407 53.1409 46.7218 53.1223C46.7029 53.1036 49.9934 51.4808 54.0339 49.516C62.6836 45.3099 62.5961 45.3701 61.712 44.2461C61.1978 43.5923 60.948 43.6812 54.5983 46.7735C46.3357 50.7977 44.6755 51.5837 44.911 51.3606C45.0238 51.2539 47.5454 49.3355 50.5148 47.0976C56.7882 42.3694 56.583 42.5446 56.583 41.9148C56.583 41.2587 56.2083 40.8793 55.5601 40.8793C54.9881 40.8793 55.9187 40.2021 41.9725 50.7669C38.1388 53.6711 34.9714 56.047 34.9338 56.0467C34.8962 56.0463 31.7289 53.6702 27.8952 50.7665C13.6691 39.9916 14.8883 40.8793 14.3121 40.8793C13.9611 40.8793 13.7092 40.9704 13.5381 41.1594ZM18.4645 54.1531C24.7037 55.8805 30.608 57.5136 31.5852 57.7821C32.5625 58.0508 33.3759 58.2819 33.3927 58.2957C33.4097 58.3097 33.2041 58.8471 32.936 59.4902L32.4484 60.6596L27.5066 59.3973C24.7885 58.7032 18.7486 57.1609 14.0846 55.9699L5.60427 53.8044L6.02081 52.3249C6.42475 50.8895 6.4475 50.8477 6.77901 50.9287C6.9669 50.9747 12.2253 52.4255 18.4645 54.1531ZM35.5158 62.2515C35.4628 62.3362 35.3514 62.7436 35.2683 63.157C35.1754 63.6198 35.0466 63.9088 34.9338 63.9088C34.821 63.9088 34.6922 63.6198 34.5993 63.157C34.5162 62.7436 34.4027 62.3327 34.3469 62.2438C34.2912 62.155 34.4051 61.7244 34.5998 61.2871L34.9539 60.492L35.283 61.2949C35.4641 61.7365 35.5689 62.167 35.5158 62.2515Z" fill="#F16001"/>
</svg>
