<svg width="71" height="71" viewBox="0 0 71 71" fill="none" xmlns="http://www.w3.org/2000/svg">
<path fill-rule="evenodd" clip-rule="evenodd" d="M37.2274 0.523417C32.3 1.29118 27.2036 4.06986 24.139 7.65986C23.2318 8.72253 23.1582 9.17344 23.7891 9.80446C24.4957 10.511 24.7391 10.4058 26.6638 8.56203C39.3287 -3.56966 58.8161 4.26545 59.3444 21.7013C59.4482 25.1238 59.4128 25.0373 60.7702 25.1828C67.4008 25.8937 70.6396 32.5114 66.8659 37.6377C65.57 39.3981 67.1084 41.1123 68.561 39.5266C73.7382 33.8744 70.1363 24.5446 62.1594 22.9445L61.7915 22.8707L61.7125 20.6547C61.3724 11.1091 54.6959 3.11389 45.1669 0.841716C43.5193 0.448745 38.8963 0.263416 37.2274 0.523417ZM41.9756 5.08486C40.8466 5.87584 41.4013 7.11376 43.0117 7.39644C45.6878 7.86624 48.1574 9.13385 50.461 11.22C51.3108 11.9897 51.7837 12.0856 52.3874 11.6108C54.2214 10.1681 48.7369 6.03669 43.7258 5.08612C42.3494 4.82504 42.3467 4.82504 41.9756 5.08486ZM21.4989 11.6416C21.3544 11.7256 21.0214 12.2596 20.7585 12.8282C20.2827 13.8583 20.2791 13.8617 19.8264 13.7608C14.288 12.5247 7.8117 17.3342 7.77104 22.7135C7.76726 23.2036 7.73559 23.2333 6.68155 23.7351C0.79582 26.5379 -0.920546 34.6584 3.36326 39.435C4.87001 41.115 6.45448 39.5818 5.08934 37.7651C1.73758 33.3042 3.59321 27.2905 8.86574 25.5269C9.94263 25.1666 10.0432 25.0004 10.1765 23.3587C10.5706 18.5068 14.9775 15.2226 19.6267 16.3158C21.0061 16.6402 21.6373 16.6149 21.8888 16.2248C22.2931 15.5977 23.2378 13.0103 23.2378 12.5299C23.2378 11.7605 22.2037 11.2322 21.4989 11.6416ZM53.9715 14.1615C52.9198 14.9888 54.6406 18.7726 55.9221 18.4509C56.8781 18.211 56.9769 17.3425 56.248 15.5914C55.5452 13.9031 54.8528 13.4682 53.9715 14.1615ZM21.7616 23.6421C18.444 24.1794 14.5836 25.8819 12.7064 27.6355L12.2731 28.0401V29.9316V31.8232L11.1721 31.8986C9.52375 32.0116 8.49634 32.6629 7.96429 33.9322C7.65894 34.6611 7.68611 67.365 7.99271 68.1001C8.70326 69.8037 9.47787 70.0919 13.357 70.0957C16.9018 70.0991 17.0526 70.0534 17.0526 68.9742C17.0526 67.9209 16.8468 67.8496 13.807 67.8496C10.8182 67.8496 10.4491 67.762 10.1798 66.9895C9.96674 66.3783 9.95882 35.6064 10.1715 34.9963C10.3498 34.4847 10.8099 34.253 11.6471 34.253H12.2731V49.6211V64.9892L12.5984 65.2948C13.1549 65.8176 13.8871 65.7124 14.8763 64.9675C20.4307 60.785 28.7602 60.7288 34.3395 64.8359C35.8529 65.9501 36.0521 65.9583 37.3755 64.9617C42.9372 60.7734 51.2538 60.7303 56.8646 64.8608C58.1716 65.823 58.5117 65.8835 59.1888 65.2739L59.5051 64.9892V49.6211V34.253H60.1311C61.799 34.253 61.7542 34.0236 61.7542 42.5575V49.6954L62.1245 49.9869C62.3284 50.1471 62.6677 50.2782 62.8788 50.2782C63.0899 50.2782 63.4292 50.1471 63.6331 49.9869L64.0034 49.6954V42.0401C64.0034 33.7675 64.0187 33.9478 63.2338 33.0169C62.6415 32.3144 61.8688 31.9851 60.6097 31.8989L59.5126 31.8237L59.4736 29.8427L59.4347 27.8616L58.3102 27.0498C53.8916 23.86 45.4055 22.3575 42.0118 24.1644C40.864 24.7756 41.4709 26.5526 42.7484 26.3214C44.9513 25.9227 45.8371 25.8198 47.0645 25.8198C50.3662 25.82 53.6224 26.783 56.4241 28.5879L57.2534 29.1222L57.2547 45.6013L57.2559 62.0803L56.0513 61.4604C50.4661 58.5864 43.8036 58.5864 38.2183 61.4604L37.0137 62.0803V45.6563V29.2322L37.8219 28.7026C39.1099 27.8588 39.2628 27.6779 39.2628 26.9992C39.2628 25.7543 38.2879 25.5058 36.8368 26.381C35.7261 27.0509 35.899 27.0354 35.1535 26.5323C31.5268 24.0847 26.1687 22.9283 21.7616 23.6421ZM26.4006 25.9643C28.9948 26.2579 31.8257 27.2808 33.8859 28.6686L34.7645 29.2604V45.7351V62.2098L33.6034 61.5921C28.2307 58.7341 21.0561 58.7341 15.6833 61.5921L14.5222 62.2098V45.731V29.2522L15.4376 28.6503C18.6979 26.5068 22.6465 25.5393 26.4006 25.9643ZM20.7074 32.0848C17.2237 32.7164 15.9944 33.6293 17.1165 34.7514C17.5535 35.1886 17.9904 35.1901 19.4761 34.7595C22.7278 33.8172 26.4418 33.9685 29.7293 35.1771C31.9704 36.001 33.2925 35.4238 32.5107 33.9631C31.744 32.5307 24.557 31.387 20.7074 32.0848ZM43.1285 32.0902C40.2774 32.6018 39.2628 33.114 39.2628 34.0421C39.2628 35.1075 39.9716 35.334 41.6525 34.8056C45.0319 33.7432 49.118 33.9597 52.724 35.3921C54.2259 35.9888 55.0068 35.7036 55.0068 34.5587C55.0068 32.7239 47.8671 31.2402 43.1285 32.0902ZM20.637 38.8295C17.1131 39.4874 15.9228 40.4459 17.1305 41.6534C17.5588 42.0818 17.8364 42.0669 19.9342 41.5017C22.9063 40.7014 26.259 40.8721 29.5895 41.9936C32.1672 42.8614 33.2346 42.4242 32.4959 40.803C31.8302 39.342 24.4615 38.1156 20.637 38.8295ZM43.1988 38.8322C39.7152 39.4638 38.4859 40.3768 39.6079 41.4988C40.045 41.9361 40.4818 41.9375 41.9675 41.5069C45.2036 40.5691 48.7357 40.6969 52.046 41.8715C54.4879 42.7378 55.8093 42.2189 55.0021 40.7105C54.2354 39.2781 47.0484 38.1345 43.1988 38.8322ZM20.637 45.5851C17.1431 46.2119 15.9219 47.1924 17.1305 48.4008C17.5588 48.8292 17.8364 48.8143 19.9342 48.2491C22.9063 47.4488 26.259 47.6196 29.5895 48.7411C31.9535 49.5369 32.7784 49.369 32.6116 48.1257C32.3516 46.1878 25.4459 44.7225 20.637 45.5851ZM43.1988 45.5797C40.473 46.0739 39.2628 46.6411 39.2628 47.4247C39.2628 48.5165 40.1398 48.8202 41.7932 48.3004C45.1926 47.2318 49.394 47.4707 53.0009 48.9379C54.275 49.4563 55.1473 49.1353 55.1473 48.1478C55.1473 46.2353 48.0255 44.7047 43.1988 45.5797ZM20.637 52.3244C17.1131 52.9822 15.9228 53.9407 17.1305 55.1482C17.5588 55.5767 17.8364 55.5617 19.9342 54.9966C22.9063 54.1962 26.259 54.367 29.5895 55.4885C32.1672 56.3563 33.2346 55.9191 32.4959 54.2979C31.8302 52.8368 24.4615 51.6104 20.637 52.3244ZM43.1988 52.3271C39.7152 52.9587 38.4859 53.8716 39.6079 54.9937C40.045 55.4309 40.4818 55.4324 41.9675 55.0018C45.2036 54.064 48.7357 54.1917 52.046 55.3663C54.4879 56.2327 55.8093 55.7138 55.0021 54.2054C54.2354 52.773 47.0484 51.6293 43.1988 52.3271ZM61.9917 52.3573C61.7891 52.5812 61.7596 53.4103 61.724 59.874L61.6839 67.139L61.3638 67.4591L61.0437 67.7792L43.7073 67.8161C26.3815 67.8528 26.3707 67.853 26.1077 68.1436C25.7581 68.5301 25.7595 69.42 26.1107 69.808L26.3767 70.102L44.1812 70.0651L61.9856 70.0284L62.5717 69.6406C62.8939 69.4274 63.332 68.9893 63.5453 68.667L63.933 68.0812L63.9717 60.3544C64.0156 51.5669 64.087 52.1056 62.8788 52.1056C62.4238 52.1056 62.149 52.1835 61.9917 52.3573ZM19.2532 68.1067C18.9257 68.4686 18.941 69.5615 19.2777 69.8661C19.7043 70.2522 22.8173 70.2045 23.1775 69.8064C23.528 69.4191 23.528 68.5292 23.1775 68.142C22.7994 67.7242 19.6251 67.6958 19.2532 68.1067Z" fill="#F16001"/>
</svg>
